<svg width="50" height="34" viewBox="0 0 50 34" fill="none" xmlns="http://www.w3.org/2000/svg">
<rect width="50" height="34" fill="#363636" rx="6"/>
<path d="M32.8359 33H30.7627L22.8887 20.9473V33H20.8154V17.3594H22.8887L30.7842 29.4658V17.3594H32.8359V33ZM41.6768 30.2607L46.1455 17.3594H48.4014L42.6006 33H40.7744L34.9844 17.3594H37.2295L41.6768 30.2607Z" fill="white"/>
<path d="M32.8359 33V34H33.8359V33H32.8359ZM30.7627 33L29.9255 33.5469L30.2215 34H30.7627V33ZM22.8887 20.9473L23.7259 20.4003L21.8887 17.5882V20.9473H22.8887ZM22.8887 33V34H23.8887V33H22.8887ZM20.8154 33H19.8154V34H20.8154V33ZM20.8154 17.3594V16.3594H19.8154V17.3594H20.8154ZM22.8887 17.3594L23.7263 16.8131L23.4304 16.3594H22.8887V17.3594ZM30.7842 29.4658L29.9466 30.0121L31.7842 32.8298V29.4658H30.7842ZM30.7842 17.3594V16.3594H29.7842V17.3594H30.7842ZM32.8359 17.3594H33.8359V16.3594H32.8359V17.3594ZM32.8359 32H30.7627V34H32.8359V32ZM31.5999 32.4531L23.7259 20.4003L22.0515 21.4942L29.9255 33.5469L31.5999 32.4531ZM21.8887 20.9473V33H23.8887V20.9473H21.8887ZM22.8887 32H20.8154V34H22.8887V32ZM21.8154 33V17.3594H19.8154V33H21.8154ZM20.8154 18.3594H22.8887V16.3594H20.8154V18.3594ZM22.0511 17.9056L29.9466 30.0121L31.6218 28.9196L23.7263 16.8131L22.0511 17.9056ZM31.7842 29.4658V17.3594H29.7842V29.4658H31.7842ZM30.7842 18.3594H32.8359V16.3594H30.7842V18.3594ZM31.8359 17.3594V33H33.8359V17.3594H31.8359ZM41.6768 30.2607L40.7314 30.5866L41.6745 33.3226L42.6217 30.588L41.6768 30.2607ZM46.1455 17.3594V16.3594H45.4336L45.2006 17.0321L46.1455 17.3594ZM48.4014 17.3594L49.339 17.7071L49.8388 16.3594H48.4014V17.3594ZM42.6006 33V34H43.2963L43.5382 33.3477L42.6006 33ZM40.7744 33L39.8366 33.3472L40.0783 34H40.7744V33ZM34.9844 17.3594V16.3594H33.5479L34.0466 17.7065L34.9844 17.3594ZM37.2295 17.3594L38.1749 17.0335L37.9425 16.3594H37.2295V17.3594ZM42.6217 30.588L47.0904 17.6867L45.2006 17.0321L40.7318 29.9334L42.6217 30.588ZM46.1455 18.3594H48.4014V16.3594H46.1455V18.3594ZM47.4638 17.0116L41.663 32.6523L43.5382 33.3477L49.339 17.7071L47.4638 17.0116ZM42.6006 32H40.7744V34H42.6006V32ZM41.7122 32.6528L35.9222 17.0122L34.0466 17.7065L39.8366 33.3472L41.7122 32.6528ZM34.9844 18.3594H37.2295V16.3594H34.9844V18.3594ZM36.2841 17.6853L40.7314 30.5866L42.6222 29.9348L38.1749 17.0335L36.2841 17.6853Z" fill="white"/>
<circle cx="8" cy="8" r="4" fill="white"/>
</svg>
